<svg width="15" height="16" viewBox="0 0 15 16" fill="none" xmlns="http://www.w3.org/2000/svg">
<path d="M7.43166 0.952148C3.53225 0.952148 0.371094 4.1133 0.371094 8.01271C0.371094 11.3238 2.65081 14.1023 5.72611 14.8654V10.1704H4.27022V8.01271H5.72611V7.08298C5.72611 4.67984 6.81372 3.56597 9.17307 3.56597C9.62043 3.56597 10.3923 3.6538 10.708 3.74135V5.69713C10.5414 5.67962 10.2519 5.67086 9.8924 5.67086C8.73475 5.67086 8.2874 6.10947 8.2874 7.24961V8.01271H10.5937L10.1974 10.1704H8.2874V15.0216C11.7835 14.5994 14.4925 11.6226 14.4925 8.01271C14.4922 4.1133 11.3311 0.952148 7.43166 0.952148Z" fill="white"/>
</svg>
