<svg width="16" height="16" viewBox="0 0 16 16" fill="none" xmlns="http://www.w3.org/2000/svg">
<path d="M14.0246 0.952148H2.01329C1.43791 0.952148 0.972656 1.40639 0.972656 1.96801V14.0289C0.972656 14.5905 1.43791 15.0475 2.01329 15.0475H14.0246C14.6 15.0475 15.068 14.5905 15.068 14.0317V1.96801C15.068 1.40639 14.6 0.952148 14.0246 0.952148ZM5.15447 12.9635H3.06219V6.23516H5.15447V12.9635ZM4.10833 5.31841C3.43659 5.31841 2.89425 4.77607 2.89425 4.10709C2.89425 3.43811 3.43659 2.89577 4.10833 2.89577C4.77731 2.89577 5.31965 3.43811 5.31965 4.10709C5.31965 4.77332 4.77731 5.31841 4.10833 5.31841ZM12.984 12.9635H10.8945V9.69293C10.8945 8.91383 10.8807 7.90899 9.80704 7.90899C8.71961 7.90899 8.55443 8.75967 8.55443 9.63787V12.9635H6.46765V6.23516H8.47184V7.15467H8.49937C8.77742 6.62609 9.46017 6.06723 10.476 6.06723C12.5931 6.06723 12.984 7.46025 12.984 9.27172V12.9635Z" fill="white"/>
</svg>
