<?xml version="1.0" standalone="no"?>
<!DOCTYPE svg PUBLIC "-//W3C//DTD SVG 20010904//EN"
 "http://www.w3.org/TR/2001/REC-SVG-20010904/DTD/svg10.dtd">
<svg version="1.0" xmlns="http://www.w3.org/2000/svg"
 width="1000.000000pt" height="1000.000000pt" viewBox="0 0 1000.000000 1000.000000"
 preserveAspectRatio="xMidYMid meet">
<metadata>
Created by potrace 1.11, written by Peter Selinger 2001-2013
</metadata>
<g transform="translate(0.000000,1000.000000) scale(0.100000,-0.100000)"
fill="#000000" stroke="none">
<path d="M4778 9965 c-2 -1 -50 -5 -108 -9 -58 -3 -123 -8 -145 -10 -22 -3
-71 -7 -110 -11 -38 -3 -77 -8 -85 -10 -8 -2 -35 -6 -61 -9 -37 -4 -215 -34
-294 -50 -220 -44 -660 -177 -830 -251 -16 -7 -75 -32 -130 -55 -126 -53 -379
-180 -490 -245 -22 -13 -58 -34 -80 -46 -171 -94 -503 -336 -725 -528 -76 -65
-361 -347 -436 -431 -197 -220 -411 -513 -569 -780 -70 -117 -212 -391 -254
-490 -14 -30 -34 -77 -46 -105 -72 -160 -214 -586 -240 -715 -2 -8 -17 -78
-34 -155 -17 -77 -35 -167 -40 -200 -6 -33 -13 -74 -16 -91 -3 -18 -7 -52 -10
-75 -3 -24 -8 -55 -10 -69 -6 -37 -23 -228 -31 -335 -4 -63 -4 -516 1 -570 2
-22 6 -76 9 -120 7 -94 11 -130 21 -205 4 -30 9 -66 10 -80 4 -36 22 -145 35
-215 6 -33 13 -73 16 -90 3 -16 23 -102 45 -190 132 -536 344 -1029 643 -1495
33 -52 64 -99 68 -105 5 -5 31 -41 58 -80 27 -38 58 -81 67 -95 40 -55 191
-241 267 -327 82 -94 333 -346 417 -418 103 -90 157 -134 253 -208 55 -43 109
-85 119 -93 45 -37 282 -192 382 -250 61 -36 121 -72 135 -80 64 -39 458 -227
565 -269 255 -100 606 -208 755 -231 19 -3 38 -8 42 -10 12 -8 239 -49 323
-59 28 -3 61 -8 75 -10 14 -3 50 -7 80 -10 30 -3 66 -8 80 -10 134 -24 711
-25 955 -1 101 10 168 18 183 21 9 1 40 6 67 9 253 32 756 159 975 246 25 10
99 39 165 65 216 86 451 202 665 328 166 98 456 299 575 398 11 9 63 52 115
95 107 89 404 381 501 493 35 41 69 79 74 85 6 6 28 34 50 61 21 28 42 52 45
55 6 6 120 156 140 186 325 470 514 838 676 1319 96 286 174 619 209 890 3 28
8 64 10 80 8 54 15 129 21 205 3 41 7 100 9 130 6 71 6 479 0 550 -2 30 -7 87
-9 125 -3 39 -8 86 -10 105 -3 19 -7 59 -11 89 -40 379 -159 849 -306 1216 -7
17 -13 32 -13 35 -12 56 -192 427 -286 590 -40 69 -78 134 -84 145 -49 86
-255 383 -321 462 -8 10 -40 50 -71 88 -31 39 -77 95 -103 125 -63 75 -381
393 -460 460 -36 30 -72 62 -81 70 -66 63 -345 271 -490 364 -41 27 -91 59
-110 71 -101 66 -532 295 -554 295 -3 0 -33 13 -68 29 -278 127 -762 275
-1068 326 -253 42 -287 47 -430 60 -36 3 -92 8 -125 11 -62 5 -552 14 -557 9z"/>
</g>
</svg>
